<svg width="320" height="220" viewBox="0 0 320 220" fill="none" xmlns="http://www.w3.org/2000/svg" role="img" aria-labelledby="title desc">
  <title id="title">Handyman illustration</title>
  <desc id="desc">A friendly handyman holding a wrench inside a rounded badge.</desc>
  <rect x="20" y="20" width="280" height="180" rx="32" fill="#111827" stroke="#1F2937" stroke-width="3"/>
  <circle cx="140" cy="90" r="26" fill="#FCD34D"/>
  <path d="M110 150C110 132 124 118 142 118H182C200 118 214 132 214 150V168H110V150Z" fill="#38BDF8"/>
  <path d="M130 88C136 94 144 98 154 98C165 98 174 92 180 84" stroke="#F59E0B" stroke-width="8" stroke-linecap="round"/>
  <path d="M182 66H226C234 66 240 72 240 80V84C240 92 234 98 226 98H212" stroke="#94A3B8" stroke-width="10" stroke-linecap="round"/>
  <path d="M212 98L222 122" stroke="#94A3B8" stroke-width="10" stroke-linecap="round"/>
  <path d="M122 154H206" stroke="#0F172A" stroke-width="8" stroke-linecap="round"/>
  <circle cx="122" cy="154" r="6" fill="#0F172A"/>
  <circle cx="206" cy="154" r="6" fill="#0F172A"/>
</svg>
